<svg xmlns="http://www.w3.org/2000/svg" width="8in" height="8in" viewBox="0 0 8 8">
<title>HEAVY.EARTH HE8 grid - TOP is the upper edge; print at 100 percent</title>
<desc>8 inch square. Diamonds are 0.5 inch wide and 0.25 inch high. Origin is the top-left corner. All panels use this same grid without rotation.</desc>
<rect width="8" height="8" fill="white"/>
<g stroke="#999" stroke-width="0.004" fill="none">
<line x1="7.5" y1="0" x2="8" y2="0.25"/>
<line x1="7" y1="0" x2="8" y2="0.5"/>
<line x1="6.5" y1="0" x2="8" y2="0.75"/>
<line x1="6" y1="0" x2="8" y2="1"/>
<line x1="5.5" y1="0" x2="8" y2="1.25"/>
<line x1="5" y1="0" x2="8" y2="1.5"/>
<line x1="4.5" y1="0" x2="8" y2="1.75"/>
<line x1="4" y1="0" x2="8" y2="2"/>
<line x1="3.5" y1="0" x2="8" y2="2.25"/>
<line x1="3" y1="0" x2="8" y2="2.5"/>
<line x1="2.5" y1="0" x2="8" y2="2.75"/>
<line x1="2" y1="0" x2="8" y2="3"/>
<line x1="1.5" y1="0" x2="8" y2="3.25"/>
<line x1="1" y1="0" x2="8" y2="3.5"/>
<line x1="0.5" y1="0" x2="8" y2="3.75"/>
<line x1="0" y1="0" x2="8" y2="4"/>
<line x1="0" y1="0.25" x2="8" y2="4.25"/>
<line x1="0" y1="0.5" x2="8" y2="4.5"/>
<line x1="0" y1="0.75" x2="8" y2="4.75"/>
<line x1="0" y1="1" x2="8" y2="5"/>
<line x1="0" y1="1.25" x2="8" y2="5.25"/>
<line x1="0" y1="1.5" x2="8" y2="5.5"/>
<line x1="0" y1="1.75" x2="8" y2="5.75"/>
<line x1="0" y1="2" x2="8" y2="6"/>
<line x1="0" y1="2.25" x2="8" y2="6.25"/>
<line x1="0" y1="2.5" x2="8" y2="6.5"/>
<line x1="0" y1="2.75" x2="8" y2="6.75"/>
<line x1="0" y1="3" x2="8" y2="7"/>
<line x1="0" y1="3.25" x2="8" y2="7.25"/>
<line x1="0" y1="3.5" x2="8" y2="7.5"/>
<line x1="0" y1="3.75" x2="8" y2="7.75"/>
<line x1="0" y1="4" x2="8" y2="8"/>
<line x1="0" y1="4.25" x2="7.5" y2="8"/>
<line x1="0" y1="4.5" x2="7" y2="8"/>
<line x1="0" y1="4.75" x2="6.5" y2="8"/>
<line x1="0" y1="5" x2="6" y2="8"/>
<line x1="0" y1="5.25" x2="5.5" y2="8"/>
<line x1="0" y1="5.5" x2="5" y2="8"/>
<line x1="0" y1="5.75" x2="4.5" y2="8"/>
<line x1="0" y1="6" x2="4" y2="8"/>
<line x1="0" y1="6.25" x2="3.5" y2="8"/>
<line x1="0" y1="6.5" x2="3" y2="8"/>
<line x1="0" y1="6.75" x2="2.5" y2="8"/>
<line x1="0" y1="7" x2="2" y2="8"/>
<line x1="0" y1="7.25" x2="1.5" y2="8"/>
<line x1="0" y1="7.5" x2="1" y2="8"/>
<line x1="0" y1="7.75" x2="0.5" y2="8"/>
<line x1="0" y1="0.25" x2="0.5" y2="0"/>
<line x1="0" y1="0.5" x2="1" y2="0"/>
<line x1="0" y1="0.75" x2="1.5" y2="0"/>
<line x1="0" y1="1" x2="2" y2="0"/>
<line x1="0" y1="1.25" x2="2.5" y2="0"/>
<line x1="0" y1="1.5" x2="3" y2="0"/>
<line x1="0" y1="1.75" x2="3.5" y2="0"/>
<line x1="0" y1="2" x2="4" y2="0"/>
<line x1="0" y1="2.25" x2="4.5" y2="0"/>
<line x1="0" y1="2.5" x2="5" y2="0"/>
<line x1="0" y1="2.75" x2="5.5" y2="0"/>
<line x1="0" y1="3" x2="6" y2="0"/>
<line x1="0" y1="3.25" x2="6.5" y2="0"/>
<line x1="0" y1="3.5" x2="7" y2="0"/>
<line x1="0" y1="3.75" x2="7.5" y2="0"/>
<line x1="0" y1="4" x2="8" y2="0"/>
<line x1="0" y1="4.25" x2="8" y2="0.25"/>
<line x1="0" y1="4.5" x2="8" y2="0.5"/>
<line x1="0" y1="4.75" x2="8" y2="0.75"/>
<line x1="0" y1="5" x2="8" y2="1"/>
<line x1="0" y1="5.25" x2="8" y2="1.25"/>
<line x1="0" y1="5.5" x2="8" y2="1.5"/>
<line x1="0" y1="5.75" x2="8" y2="1.75"/>
<line x1="0" y1="6" x2="8" y2="2"/>
<line x1="0" y1="6.25" x2="8" y2="2.25"/>
<line x1="0" y1="6.5" x2="8" y2="2.5"/>
<line x1="0" y1="6.75" x2="8" y2="2.75"/>
<line x1="0" y1="7" x2="8" y2="3"/>
<line x1="0" y1="7.25" x2="8" y2="3.25"/>
<line x1="0" y1="7.5" x2="8" y2="3.5"/>
<line x1="0" y1="7.75" x2="8" y2="3.75"/>
<line x1="0" y1="8" x2="8" y2="4"/>
<line x1="0.5" y1="8" x2="8" y2="4.25"/>
<line x1="1" y1="8" x2="8" y2="4.5"/>
<line x1="1.5" y1="8" x2="8" y2="4.75"/>
<line x1="2" y1="8" x2="8" y2="5"/>
<line x1="2.5" y1="8" x2="8" y2="5.25"/>
<line x1="3" y1="8" x2="8" y2="5.5"/>
<line x1="3.5" y1="8" x2="8" y2="5.75"/>
<line x1="4" y1="8" x2="8" y2="6"/>
<line x1="4.5" y1="8" x2="8" y2="6.25"/>
<line x1="5" y1="8" x2="8" y2="6.5"/>
<line x1="5.5" y1="8" x2="8" y2="6.75"/>
<line x1="6" y1="8" x2="8" y2="7"/>
<line x1="6.5" y1="8" x2="8" y2="7.25"/>
<line x1="7" y1="8" x2="8" y2="7.5"/>
<line x1="7.5" y1="8" x2="8" y2="7.75"/>
</g>
<rect x="0" y="0" width="8" height="8" stroke="#333" stroke-width="0.007" fill="none"/>
</svg>
